<?xml version="1.0" encoding="iso-8859-1"?>
<!-- Generator: Adobe Illustrator 18.1.1, SVG Export Plug-In . SVG Version: 6.00 Build 0)  -->
<svg version="1.1" id="Capa_1" xmlns="http://www.w3.org/2000/svg" xmlns:xlink="http://www.w3.org/1999/xlink" x="0px" y="0px"
	 viewBox="0 0 51.792 51.792" style="enable-background:new 0 0 51.792 51.792;" xml:space="preserve">
<g>
	<path style="fill:#010002;" d="M29.716,6.035c2.109,6.492,9.352,11.754,16.177,11.754c6.826,0,7.883,3.252,2.36,7.264
		c-5.521,4.012-8.288,12.526-6.179,19.017c2.109,6.492-0.658,8.502-6.18,4.49s-14.474-4.012-19.996,0s-8.289,2.002-6.18-4.49
		c2.109-6.491-0.657-15.006-6.179-19.017c-5.523-4.012-4.466-7.264,2.36-7.264c6.825,0,14.067-5.262,16.177-11.754
		C24.187-0.456,27.607-0.456,29.716,6.035z"/>
</g>
<g>
</g>
<g>
</g>
<g>
</g>
<g>
</g>
<g>
</g>
<g>
</g>
<g>
</g>
<g>
</g>
<g>
</g>
<g>
</g>
<g>
</g>
<g>
</g>
<g>
</g>
<g>
</g>
<g>
</g>
</svg>
